<svg xmlns="http://www.w3.org/2000/svg" viewBox="0 0 631 279.4"><defs><style>.cls-1{font-size:48px;}.cls-1,.cls-11,.cls-9{font-family:ZenDots-Regular, Zen Dots;}.cls-2{letter-spacing:0.02em;}.cls-3{fill:#ff302a;}.cls-4{letter-spacing:-0.07em;}.cls-5{letter-spacing:-0.01em;}.cls-6{fill:#fff;}.cls-7{fill:#333;}.cls-8{fill:#ff362a;}.cls-9{font-size:6.32px;}.cls-10{letter-spacing:0.02em;}.cls-11{font-size:2.13px;}.cls-12{fill:red;}</style></defs><g id="Layer_2" data-name="Layer 2"><g id="Layer_1-2" data-name="Layer 1"><path d="M310.35,94.25v32.67c-1.13.73-2.23,1.49-3.37,2.2-7,4.37-14.35,8.16-21.14,12.88h-2.51c-2.79-1-5.73-.88-8.61-1.2-14.1-1.61-28.21-3.06-42.3-4.73q-24.09-2.85-48.14-6c-4.7-.64-9.6-.34-14.05-2.47V67.86c1.29-.67,2.54-1.4,3.86-2,7.33-3.25,14.65-6.54,22-9.64a3.56,3.56,0,0,0,2.58-3.92c-.11-11.69,0-23.39-.1-35.09,0-2.33.74-3.65,2.92-4.49,3.1-1.19,6.15-2.56,9.17-4,6.38-3,13.09-5.23,19.22-8.76h1.89A5.64,5.64,0,0,0,233,.44c16.38,2.14,32.74,4.38,49.14,6.28,3.38.39,4.13,1.67,4.13,4.7,0,16.65.21,33.29.24,49.94,0,2.21.31,3.27,2.95,3.49,5.72.47,11.38,1.63,17.1,2.19,2.59.25,3.32,1.22,3.34,3.7C309.94,78.58,309.63,86.43,310.35,94.25Zm-78-48.51c-2.43-1.62-4.59-2.89-6.53-4.42-1.54-1.2-2.79-1.38-4.47-.27-2,1.31-4.14,2.33-6.47,3.62,0-1.77-.09-3.2,0-4.61.42-6.16.82-12.32,1.39-18.47.16-1.72-.15-2.5-2-2.67-3.12-.29-6.23-.71-9.32-1.21-1.88-.3-2.6.12-2.59,2.21q.12,24.49,0,49c0,2,.67,2.64,2.68,2.78,4.48.32,8.93,1,13.4,1.48,12.58,1.41,25.15,2.78,37.72,4.24,1.53.18,2-.11,2-1.7q-.08-24.51,0-49c0-1.61-.5-2.08-2.11-2.26-6.54-.75-13.09-1.52-19.57-2.66-2.63-.45-3.24.19-3.3,2.67C233.07,31.36,233.2,38.27,232.38,45.74Zm6.07,58.86c.52-7.78,1-15.28,1.56-22.77.14-1.82-.26-2.67-2.29-2.69a39,39,0,0,1-7.48-.69c-2.54-.51-2.89.43-2.88,2.71.09,16,.12,32,0,48,0,2.58.95,3.14,3.18,3.32,5.41.43,10.81,1.05,16.21,1.62,10.81,1.14,21.62,2.23,32.42,3.48,2.47.29,2.93-.54,2.92-2.84q-.15-23.38,0-46.76c0-2.29-.53-3.32-2.93-3.57q-9-.95-18-2.31c-4.3-.64-4-1-4.12,3.52-.21,6.63-.44,13.26-.68,20.37-3.16-2.09-5.64-4.74-8.57-5.39C244.54,99.91,242.13,103.64,238.45,104.6Zm-52.13-6.93c.5-7.59,1-15.1,1.54-22.59.15-1.9-.46-2.62-2.32-2.78-2.7-.23-5.39-.61-8.07-1.07C176,71,175.2,71.06,175.21,73q.09,24.95,0,49.89c0,1.6.47,2.13,2.1,2.27,4.26.36,8.5,1,12.76,1.45Q205,128.28,220,130c1.57.18,2.48.06,2.47-2-.08-16.21,0-32.43,0-48.64,0-1.37-.29-2-1.86-2.14C216.69,77,212.86,76.4,209,76c-4.12-.4-4.07-.36-4.19,3.72-.18,6.4-.44,12.81-.71,20.42-5.59-7-11.16-7.26-17.09-2.35C187,97.86,186.83,97.78,186.32,97.67Zm95.51-84.18c-5.47,3.44-10.86,7-16.39,10.24A4.21,4.21,0,0,0,263.16,28c.08,15.06,0,30.12.06,45.18,0,.88-.31,1.84.5,2.94,5.8-3.49,11.57-7,17.37-10.44,1.51-.9,1.63-2.2,1.61-3.74-.11-15.06-.17-30.12-.28-45.18C282.42,15.76,282.69,14.68,281.83,13.49Zm5.08,123.08c6.42-3.81,12.21-7.33,18.09-10.68,1.5-.86,1.54-2,1.53-3.39-.17-15.58-.3-31.16-.47-46.74,0-.65.34-1.47-.66-2-5,3.13-9.9,6.48-15.08,9.37-2.79,1.56-3.54,3.45-3.48,6.49.19,9.72.07,19.45.07,29.17ZM236.12,17.93c7.44,1,13.95,1.85,20.47,2.66,1.54.19,3.46.76,4.6.11,5.57-3.17,10.95-6.7,17.12-10.57-7.33-.94-13.73-1.8-20.13-2.57-1.2-.14-2.41-.8-3.67-.08C248.65,10.83,242.77,14.15,236.12,17.93Zm30.38,61c5.64.76,10.28,1.42,14.93,2,1.41.17,2.88.56,4.27-.32,5.17-3.28,10.36-6.53,16.32-10.27-5.21-.68-9.58-1.31-14-1.79-1.29-.14-2.6-.9-4-.09C278.5,71.78,272.89,75.12,266.5,78.93ZM236.55,5.26l-.22-.74c-1.85-.12-3.94-.87-5.49-.25-7.5,3-14.85,6.37-22.26,9.61,3.71.83,7.56,2.82,10.76,1.34C225.33,12.45,230.84,8.64,236.55,5.26ZM198.24,59.45,179.4,67.7c6.15.91,11.16,2.48,16.18-1.32C198.15,64.43,199.33,62.82,198.24,59.45Z"/><text class="cls-1" transform="translate(0 211)">Start o<tspan class="cls-2" x="221.61" y="0">r</tspan><tspan x="253.44" y="0">ganizing</tspan><tspan class="cls-3"><tspan class="cls-4" x="0" y="57.6">Y</tspan><tspan x="40.42" y="57.6">OUR </tspan><tspan class="cls-5" x="199.97" y="57.6">O</tspan><tspan x="250.17" y="57.6">WN STUFF</tspan></tspan></text><path class="cls-6" d="M631,140H494V3H631ZM508.92,28h-6.57c-3.46,0-4.58,1.13-4.58,4.63v67.81c0,3.49,1.12,4.62,4.58,4.62h44.22c1.26,4.93,1,8.94-.73,12.73h-6.15v5.32H587v-5.43h-4.93c-1.79-4.92-1.93-8.45-.53-12.49h3.87c0,2.54.06,4.94,0,7.33-.06,1.65.64,2.2,2.24,2.19,9.13,0,18.27,0,27.4,0,2,0,2.22-.27,2.23-2.33,0-2.38,0-4.76,0-7.29h6.29c3.59,0,4.67-1.09,4.67-4.7V32.71c0-3.61-1.09-4.71-4.67-4.71h-69.5V13.32c0-2.75-.43-3.17-3.19-3.17H512.37c-3.1,0-3.45.34-3.45,3.43Z"/><path class="cls-7" d="M508.92,28V13.58c0-3.09.35-3.43,3.45-3.43H550.9c2.76,0,3.18.42,3.19,3.17V28h69.5c3.58,0,4.67,1.1,4.67,4.71v67.65c0,3.61-1.08,4.7-4.67,4.7H617.3c0,2.53,0,4.91,0,7.29,0,2.06-.25,2.33-2.23,2.33-9.13,0-18.27,0-27.4,0-1.6,0-2.3-.54-2.24-2.19.08-2.39,0-4.79,0-7.33h-3.87c-1.4,4-1.26,7.57.53,12.49H587v5.43H539.69V117.8h6.15c1.76-3.79,2-7.8.73-12.73H502.35c-3.46,0-4.58-1.13-4.58-4.62V32.63c0-3.5,1.12-4.62,4.58-4.63Zm45.17,5.22V83.31c0,2.88-.42,3.3-3.24,3.3H512.33c-3.06,0-3.41-.35-3.41-3.46V33.22H505.4V100.5h80.05V63.43c0-2.46.13-2.59,2.65-2.59h26.54c2.56,0,2.66.11,2.66,2.76v36.88h3V33.22ZM551,78.55V14.87H511.64V78.55ZM587.33,109h27.78V64.14H587.33Zm-55.57-28a8.51,8.51,0,0,0-2.37,0c-.59.18-1.49.91-1.43,1.25.1.6.78,1.5,1.31,1.56a21.39,21.39,0,0,0,4.93,0c.51-.06.92-.93,1.37-1.43-.53-.47-1-1.15-1.6-1.38A6.76,6.76,0,0,0,531.76,81.06Zm70,32.26c.83-.47,2.38-1,2.36-1.41-.05-1.73-1.63-1.08-2.62-1.09s-2.57-.59-2.6,1C598.86,113.53,600.57,112.71,601.75,113.32Z"/><path class="cls-6" d="M554.09,33.22H620.3v67.26h-3V63.6c0-2.65-.1-2.76-2.66-2.76H588.1c-2.52,0-2.65.13-2.65,2.59V100.5H505.4V33.22h3.52V83.15c0,3.11.35,3.46,3.41,3.46h38.52c2.82,0,3.24-.42,3.24-3.3V33.22Z"/><path class="cls-6" d="M551,78.55H511.64V14.87H551Z"/><path class="cls-6" d="M587.33,109V64.14h27.78V109Z"/><path class="cls-6" d="M531.76,81.06a6.76,6.76,0,0,1,2.21,0c.62.23,1.07.91,1.6,1.38-.45.5-.86,1.37-1.37,1.43a21.39,21.39,0,0,1-4.93,0c-.53-.06-1.21-1-1.31-1.56-.06-.34.84-1.07,1.43-1.25A8.51,8.51,0,0,1,531.76,81.06Z"/><path class="cls-6" d="M601.75,113.32c-1.18-.61-2.89.21-2.86-1.53,0-1.56,1.65-1,2.6-1s2.57-.64,2.62,1.09C604.13,112.35,602.58,112.85,601.75,113.32Z"/><path class="cls-8" d="M568.11,50.31v2.18l-.23.15c-.47.29-1,.54-1.41.86h-.17a2.32,2.32,0,0,0-.58-.08c-.94-.11-1.89-.2-2.83-.32s-2.15-.26-3.22-.4a2.79,2.79,0,0,1-.94-.17v-4l.26-.13,1.47-.65a.24.24,0,0,0,.18-.26c0-.78,0-1.57,0-2.35a.28.28,0,0,1,.2-.3l.61-.26c.43-.2.88-.35,1.29-.59h.12s0,0,.08,0c1.09.14,2.19.29,3.29.42.22,0,.27.11.27.31,0,1.12,0,2.23,0,3.34,0,.15,0,.22.2.24.38,0,.76.11,1.14.14.17,0,.22.09.22.25C568.08,49.26,568.06,49.78,568.11,50.31Zm-5.22-3.25c-.16-.11-.31-.19-.44-.3a.22.22,0,0,0-.3,0l-.43.24v-.31l.09-1.24c0-.11,0-.16-.13-.17l-.62-.08c-.13,0-.18,0-.17.14v3.28c0,.14,0,.18.18.19s.59.06.89.1l2.53.28c.1,0,.13,0,.13-.11V45.79c0-.11,0-.14-.14-.15-.44,0-.88-.11-1.31-.18-.18,0-.22,0-.22.18C562.94,46.1,562.94,46.56,562.89,47.06ZM563.3,51c0-.52.06-1,.1-1.53,0-.12,0-.17-.15-.18a2.74,2.74,0,0,1-.5,0c-.17,0-.2,0-.2.18q0,1.6,0,3.21c0,.17.07.21.22.22l1.08.11c.72.08,1.45.15,2.17.24.16,0,.19,0,.19-.19V49.89c0-.16,0-.22-.19-.24-.41,0-.81-.1-1.21-.16s-.26-.06-.27.24,0,.89,0,1.36a2.32,2.32,0,0,0-.57-.36C563.7,50.68,563.54,50.93,563.3,51Zm-3.49-.47c0-.5.06-1,.1-1.51,0-.12,0-.17-.15-.18l-.54-.07c-.1,0-.16,0-.16.11,0,1.11,0,2.23,0,3.34,0,.11,0,.14.14.15.28,0,.56.06.85.1l2,.23c.1,0,.16,0,.16-.14V49.31c0-.09,0-.14-.12-.14l-.77-.08c-.28,0-.28,0-.28.25s0,.85,0,1.36a.71.71,0,0,0-1.14-.16Zm6.39-5.63c-.37.23-.73.47-1.1.69a.28.28,0,0,0-.15.28v3a.24.24,0,0,0,0,.19l1.16-.7c.1-.06.11-.14.11-.25,0-1,0-2,0-3A.3.3,0,0,0,566.2,44.9Zm.34,8.24,1.21-.72c.1-.06.1-.13.1-.22l0-3.13s0-.1,0-.14c-.34.21-.67.44-1,.63a.43.43,0,0,0-.24.44c0,.65,0,1.3,0,2Zm-3.4-7.94,1.37.18c.1,0,.23,0,.31,0,.37-.22.73-.45,1.14-.71l-1.34-.17c-.08,0-.17-.06-.25,0Zm2,4.08c.38,0,.69.1,1,.13a.42.42,0,0,0,.29,0l1.09-.69-.94-.12c-.08,0-.17-.06-.26,0Zm-2-4.93,0-.05c-.12,0-.26-.06-.36,0-.5.2-1,.42-1.49.64.25,0,.5.19.72.09A13.24,13.24,0,0,0,563.17,44.35ZM560.61,48l-1.26.55c.41.06.74.16,1.08-.09C560.6,48.31,560.68,48.2,560.61,48Z"/><text class="cls-9" transform="translate(568.44 51.38)">Wa<tspan class="cls-10" x="11.82" y="0">r</tspan><tspan x="16" y="0">ehouse</tspan></text><text class="cls-11" transform="translate(575.66 47.89)">simple</text><path d="M11.23,35.9c1.2-1.11.75-2.33.76-3.41,0-6.78.09-13.56,0-20.34C12,9.86,12.66,9,15.08,9c7.84.13,15.68.11,23.52,0,2.2,0,3,.72,3,2.94-.09,6.88-.07,13.77,0,20.65,0,1.08-.86,3,1,3.12,2.06.09,1.06-1.95,1.08-3,.11-6.89.13-13.78,0-20.66,0-2.38.79-3.12,3.13-3.09Q58.37,9.19,70,9c2.35,0,3.17.73,3.13,3.1C73,19.2,73,26.3,73.07,33.4c0,.91-.54,2.45,1.16,2.4s1-1.57,1.06-2.46c0-7,.1-14,0-21,0-2.38.5-3.42,3.16-3.37,7.73.17,15.47.14,23.2,0,2.42,0,3.08.84,3.05,3.15-.12,7.09,0,14.19-.09,21.29,0,2,.61,2.52,2.53,2.51q14.63-.14,29.24,0c2.14,0,2.68-.71,2.63-2.73-.12-5.18.09-10.38-.08-15.57-.1-2.95.76-4.21,3.93-4.18,3,0,3.85,1.25,3.76,4-.16,4.55-.07,9.11,0,13.66,0,2.11-.54,4.23,1.95,5.78,1.46.91.75,6.08-.85,7.1-1.18.76-1.09,1.68-1.09,2.7q0,14.31,0,28.6a2.79,2.79,0,0,0,1.31,2.86c1.9,1.22,1.91,6.39,0,7.6a2.79,2.79,0,0,0-1.31,2.88q0,14.31,0,28.6c0,1.18,0,2.08,1.35,2.84,1.59.93,1.94,6.33.4,7.17-2.31,1.26-1.69,3.11-1.72,4.88-.08,3.7-3.08,5.58-6.37,3.9-1.73-.88-1.22-2.54-1.24-4-.09-4.61.48-4.09-4.06-4.09-40.15,0-80.3,0-120.45-.08-3.11,0-4.3.6-4,3.94.33,4.13-1.62,5.41-5.69,4.35C3,135.79,2.92,134.49,2.88,133c0-2.19.65-4.5-2-6-1.23-.72-.79-6.1.5-6.72,1.7-.82,1.5-2.07,1.5-3.4q0-14,0-28c0-1.26,0-2.28-1.41-3.15-1.73-1.06-1.77-6.38,0-7.39s1.44-2.12,1.44-3.44q0-13.83,0-27.65c0-1.35.09-2.5-1.47-3.45-1.72-1-1.66-6.3.06-7.4,1.38-.87,1.42-1.87,1.42-3.15,0-5.4.09-10.81-.05-16.21-.08-2.93,1.33-3.53,3.9-3.55s3.86.83,3.78,3.66c-.14,5.19-.06,10.38,0,15.57C10.54,33.73,10.13,34.85,11.23,35.9ZM74.94,86.19H13.62c-1.52,0-3.18-.46-3.16,2.19.11,9.74.08,19.48,0,29.22,0,1.71.64,2.18,2.24,2.16,4.24-.08,8.48-.15,12.71,0,2.32.1,3.12-.51,3.06-3-.17-7,0-14-.1-21,0-2.37.78-3.16,3.12-3.12,7.73.1,15.46.13,23.19,0,2.66,0,3.18,1,3.14,3.4-.11,7-.06,14,0,21,0,.93-.56,2.47,1,2.54,2,.08,1.17-1.68,1.18-2.63.08-7.09.12-14.19,0-21.28,0-2.21.69-3,2.91-3q11.75.14,23.5,0c2.15,0,3.06.63,3,2.9-.14,4.44,0,8.89,0,13.34,0,3,0,5.93,0,8.89,0,.81-.17,1.84,1.15,1.79s1-1.08,1.1-1.87,0-1.27,0-1.91c0-6.78,0-13.55,0-20.33,0-2,.67-2.83,2.75-2.8q11.91.12,23.83,0c2.24,0,2.93.82,2.9,3-.1,7.1,0,14.19-.08,21.29,0,2,.43,2.83,2.61,2.75,4.23-.16,8.47-.15,12.7,0,2.13.07,2.68-.67,2.66-2.71-.1-9.21-.15-18.43,0-27.64,0-2.72-.84-3.31-3.41-3.29C115.39,86.24,95.16,86.19,74.94,86.19Zm.11-41.87H13.7c-1.72,0-3.3-.33-3.26,2.44.15,9.64.09,19.28,0,28.92,0,1.66.53,2.22,2.19,2.19,4.45-.09,8.9-.14,13.34,0,2,.07,2.49-.68,2.46-2.56-.09-7.09,0-14.19-.08-21.29,0-2.38.78-3.14,3.12-3.1,7.41.11,14.84.19,22.25,0,3.2-.1,4.23.78,4.12,4.06-.24,7-.08,14-.06,21,0,.8-.18,1.84,1.13,1.85s1.07-1,1.11-1.82,0-1.49,0-2.23c0-6.67,0-13.35,0-20,0-1.79.41-2.78,2.45-2.76q12.24.09,24.47,0c2,0,2.49,1,2.45,2.75-.08,3.6,0,7.2,0,10.81,0,3.81,0,7.62,0,11.44,0,.79-.22,1.84,1.11,1.83s1.08-1.05,1.13-1.85c0-.63,0-1.27,0-1.9,0-6.68.08-13.36,0-20,0-2.38.82-3.1,3.15-3.07q11.44.18,22.88,0c2.58,0,3.56.66,3.49,3.39-.17,6.88,0,13.77-.1,20.66,0,2.1.39,3,2.74,2.92,4.13-.19,8.27-.18,12.4,0,2.24.1,2.86-.62,2.84-2.85-.12-9.21-.16-18.43,0-27.65,0-2.64-.88-3.11-3.26-3.1C115.52,44.35,95.28,44.31,75.05,44.32Zm43.31,21.41c0-3.27-.07-6.55,0-9.82.06-1.78-.56-2.38-2.36-2.35q-9.66.13-19.33,0c-1.74,0-2.41.46-2.39,2.3q.15,9.83,0,19.65c0,1.79.53,2.38,2.33,2.35,6.44-.09,12.89-.12,19.33,0,2.09,0,2.47-.84,2.42-2.63C118.3,72.07,118.37,68.9,118.36,65.73Zm-24,41.84c0,3.38.06,6.77,0,10.15,0,1.49.48,2,2,2q10-.09,20,0c1.47,0,2.1-.44,2.09-2q-.08-10.16,0-20.3c0-1.49-.52-2-2-2-6.65,0-13.31.08-20,0-1.81,0-2.08.8-2,2.3C94.4,101,94.35,104.29,94.35,107.57Zm-39.25.06c0-3.38-.05-6.77,0-10.16,0-1.5-.48-2-2-2q-10,.09-20,0c-1.6,0-2,.7-2,2.11,0,6.67.05,13.34,0,20,0,1.62.52,2.21,2.19,2.19,6.46-.08,12.92-.11,19.38,0,2.07,0,2.49-.79,2.42-2.61C55,114,55.1,110.81,55.1,107.63Zm0-42c0-3.28-.05-6.57,0-9.85,0-1.57-.38-2.27-2.12-2.25q-9.84.12-19.68,0c-1.7,0-2.19.61-2.18,2.21.05,6.67,0,13.33,0,20,0,1.42.36,2.1,2,2.08q10-.1,20,0c1.53,0,2-.53,2-2C55.05,72.43,55.1,69,55.1,65.66Zm31.65,42.11c0-3.28-.06-6.55,0-9.83,0-1.62-.26-2.53-2.21-2.5-6.55.09-13.1.07-19.65,0-1.6,0-2.25.45-2.23,2.15q.1,10,0,20c0,1.67.57,2.2,2.2,2.18,6.55-.06,13.11-.08,19.65,0,2,0,2.28-.85,2.23-2.49C86.68,114.11,86.74,110.94,86.75,107.77Zm-24-42.4h0c0,3.38,0,6.76,0,10.14,0,1.48.23,2.36,2,2.34,6.65-.08,13.31-.06,20,0,1.45,0,2.09-.41,2.08-2q-.09-10.14,0-20.28c0-1.49-.53-2-2-2-6.65,0-13.31.07-20,0-1.78,0-2.1.79-2.07,2.31C62.76,59,62.71,62.2,62.71,65.37ZM102,24c0-3.18-.09-6.36,0-9.53.08-2-.36-2.86-2.59-2.81-6.35.13-12.7.09-19.06,0-1.71,0-2.46.41-2.44,2.3q.14,9.84,0,19.69c0,1.89.72,2.32,2.43,2.3q9.69-.12,19.38,0c1.87,0,2.35-.7,2.3-2.43C101.91,30.35,102,27.17,102,24ZM58.51,35.92c3.18,0,6.35-.09,9.52,0,1.79.07,2.38-.52,2.35-2.33-.09-6.45-.13-12.91,0-19.36,0-2.2-.8-2.63-2.76-2.6q-9.36.15-18.73,0c-1.94,0-2.57.58-2.54,2.51.09,6.45.11,12.91,0,19.36,0,2.08.81,2.48,2.64,2.42C52.16,35.83,55.34,35.92,58.51,35.92ZM14.83,23.85c0,3.27.05,6.55,0,9.83,0,1.55.34,2.29,2.09,2.26q9.84-.12,19.66,0c1.63,0,2.24-.49,2.22-2.16-.06-6.66,0-13.32,0-20,0-1.39-.33-2.14-1.94-2.13q-10,.09-20,0c-1.51,0-2.06.53-2,2C14.88,17.08,14.83,20.46,14.83,23.85ZM74.56,125.4h68c.74,0,1.48,0,2.22,0,1,0,1.61-.24,1.64-1.4s-.62-1.67-1.77-1.61c-.53,0-1.06,0-1.59,0H6.45c-.74,0-1.49,0-2.23,0-1,0-1.15.75-1.16,1.56s.34,1.41,1.29,1.41l2.55,0Zm.06-41.87H142.3c.84,0,1.69,0,2.54,0,1,0,1.61-.3,1.57-1.44s-.44-1.59-1.52-1.57c-.74,0-1.48,0-2.22,0H6.68l-2.22,0c-1.14,0-1.4.68-1.41,1.66s.46,1.33,1.35,1.33H74.62ZM74.4,41.62h67.66c.85,0,1.7,0,2.54,0,1.07,0,1.87-.12,1.82-1.51,0-1.15-.63-1.45-1.62-1.42-.53,0-1.06,0-1.59,0H6.29a18.24,18.24,0,0,0-2.22,0c-1,.12-1,.88-1,1.67s.35,1.17,1.13,1.19,1.69,0,2.54,0Zm69.51,61.55c0-4.87,0-9.74,0-14.61,0-.88.37-2.15-1-2.27s-1.24,1.15-1.24,2q0,14.61,0,29.22c0,.87-.33,2.15,1.19,2.09s1.07-1.34,1.08-2.19C143.93,112.7,143.91,107.93,143.91,103.17ZM7.85,103.06c0-4.87,0-9.74,0-14.61,0-.87.33-2.16-1.12-2.16s-1.14,1.27-1.15,2.15q0,14.46,0,28.91c0,.92-.49,2.42,1.28,2.28,1.42-.11,1-1.42,1-2.27C7.87,112.59,7.85,107.83,7.85,103.06ZM5.55,60.92c0,4.87,0,9.73,0,14.6,0,.85-.44,2.12,1,2.22s1.22-1.17,1.23-2q0-14.61,0-29.21c0-.9.28-2.15-1.21-2.07s-1.06,1.34-1.07,2.21C5.53,51.39,5.55,56.16,5.55,60.92Zm136.06.32c0,4.76,0,9.52,0,14.29,0,.85-.41,2.11,1,2.22s1.22-1.18,1.22-2q0-14.61,0-29.21c0-.89.27-2.15-1.21-2.08s-1.06,1.35-1.07,2.22C141.59,51.5,141.61,56.37,141.61,61.24Zm2.3-34.91c0-2.75,0-5.51,0-8.26,0-.84.09-1.83-1.18-1.8-1,0-1.1.82-1.1,1.59q0,8.25,0,16.52c0,.79.13,1.51,1.18,1.47s1.08-.82,1.09-1.58C143.91,31.63,143.9,29,143.91,26.33ZM5.55,26.05c0,2.65,0,5.29,0,7.94,0,.8-.17,1.83,1.12,1.85s1.16-1,1.16-1.81q0-8,0-15.88c0-.81.14-1.85-1.12-1.87s-1.14,1-1.15,1.83C5.54,20.76,5.55,23.41,5.55,26.05ZM5.46,130.86c.59.76-.73,2.53,1.09,2.7S7.8,132,7.79,131s.75-2.67-1-2.85C4.86,128,5.84,129.76,5.46,130.86Zm136.1-.14c.39.95-.67,2.65,1.06,2.83,2,.2,1.25-1.59,1.23-2.55s.76-2.68-.94-2.86C141,127.93,141.89,129.73,141.56,130.72Z"/><path d="M111.15,56.27h1.58c3.76,0,5.25,2.21,4,5.84-.19.53-.46,1-1,1.07-3.14.24-6.41.75-9.37-.19-2-.64-.77-3.17-.93-4.84-.15-1.52,1-1.9,2.3-1.88C108.84,56.29,110,56.27,111.15,56.27Zm0,4.45c.89-.43,2.71.69,2.7-1,0-1.13-1.75-.71-2.7-.64s-2.77-.7-2.73.91C108.4,61.23,110.14,60.4,111.11,60.72Z"/><path d="M110.86,105.18a15,15,0,0,0-1.9,0c-2.67.36-3.76-.53-3.73-3.45s.85-3.9,3.65-3.57a21.26,21.26,0,0,0,4.44,0c2.57-.27,3.49.62,3.54,3.33,0,2.94-.84,4.13-3.78,3.69A14.94,14.94,0,0,0,110.86,105.18Zm.25-2.54c.78-.66,2.66.73,2.75-.93.07-1.33-1.71-.79-2.64-.75s-2.84-.77-2.89.81S110.05,102.19,111.11,102.64Z"/><path d="M47.72,105.17c-.52,0-1,0-1.57,0-3.69,0-5.77-2.72-3.74-5.74s5.63-.68,8.49-1.21c1.13-.21,2.29-.12,2.71,1.44,1,3.87-.1,5.51-4,5.51C49,105.18,48.35,105.17,47.72,105.17Zm.08-2.57c1-.36,2.76.55,2.79-.74,0-1.7-1.78-.86-2.77-.91s-2.7-.57-2.71.66C45.09,103.35,47,102.07,47.8,102.6Z"/><path d="M47.61,63.34h-1c-4.49,0-5.91-1.28-4.33-5.33s5.57-1,8.39-1.69c1.33-.35,2.68-.1,3,1.88C54.31,62.89,53.85,63.33,47.61,63.34Z"/><path d="M79.38,105.18H78.11c-4.31,0-5.7-1.26-4.19-5.2s5.58-1,8.39-1.73c1.36-.38,2.67-.09,2.94,1.89C85.86,104.67,85.34,105.17,79.38,105.18Zm.07-2.58c.89-.5,2.71.74,2.75-.92,0-1.29-1.7-.77-2.62-.72s-2.77-.78-2.79.85C76.78,103.13,78.51,102.25,79.45,102.6Z"/><path d="M79.29,63.35H77.71c-3.64,0-5.68-2.81-3.7-5.84,1.81-2.77,5.22-.8,7.89-1.2,1.14-.17,2.57-.47,3.21,1.2C86.66,61.55,84.9,63.34,79.29,63.35Z"/><path d="M94.37,21.52H92.79a4,4,0,0,1-3.57-6.14c.19-.32.6-.75.92-.75,3.06-.05,6.21-.49,9.14.14,2.21.47.91,3.09,1.12,4.74.16,1.26-.6,2-1.9,2H94.37Z"/><path d="M63.18,21.51H61.6c-4,0-5.28-1.79-4.15-5.69.35-1.22,1.19-1.33,2.16-1.35,1.68,0,3.37,0,5,0,4.28,0,4.56.39,4.27,4.76-.11,1.58-.71,2.33-2.28,2.3C65.49,21.49,64.33,21.51,63.18,21.51Zm.09-2.67c.67-.7,2.56.81,2.56-1,0-1.15-1.76-.62-2.69-.59s-2.75-.71-2.75.83C60.38,19.25,62.14,18.5,63.27,18.84Z"/><path d="M31.67,21.51H29.76c-4,0-4-.07-4-4.08,0-2.18.69-3.15,2.91-3,1.48.1,3,0,4.45,0,4.2,0,4.26.08,4.12,4.25C37.13,21.51,37.13,21.51,31.67,21.51Zm2.72-3.44c-1.86-1.24-3.8-.79-5.74-.23C30.51,19.1,32.44,18.84,34.39,18.07Z"/><path class="cls-12" d="M439.64,60.68a20.63,20.63,0,0,1,11.89,5,20.25,20.25,0,0,1-13,35.5q-32.22.06-64.45,0a15.58,15.58,0,0,1-.69-31.13l1-.08c.3-5.69,2.67-10.27,7.57-13.25s10.08-3,15.3-.61c5-10.32,13-15.67,24.49-13.72C431.81,44.09,437.49,50.78,439.64,60.68Zm-18.84,4c-.58-.49-1-.88-1.48-1.25A17.87,17.87,0,0,0,390.86,73c-.37,1.54.05,2.59,1.23,3,1.37.52,2.43-.26,3-2.15A13.55,13.55,0,0,1,410.66,64a12.78,12.78,0,0,1,7.18,3.88c-.7.64-1.31,1.13-1.85,1.69-1,1-.92,1.35.43,1.72,3,.82,6,1.62,9,2.41,1.42.37,1.65.13,1.26-1.35-.78-3-1.57-5.94-2.39-8.9a11.83,11.83,0,0,0-.67-1.48Zm-24.61,25,1.2,1a17.77,17.77,0,0,0,26.77-4.36,21.94,21.94,0,0,0,2.13-5.4,2.7,2.7,0,0,0-.86-2.23,2.24,2.24,0,0,0-2.11-.09,3.64,3.64,0,0,0-1.25,2,13.47,13.47,0,0,1-8.48,9.23c-4.92,1.88-11.19.43-14.26-3.39.67-.59,1.39-1.17,2.06-1.81s.54-1.13-.35-1.37c-3.24-.88-6.49-1.76-9.74-2.61-.78-.21-1.28,0-1,1q1.29,4.88,2.6,9.75c.27,1,.84,1,1.47.31S395.52,90.42,396.19,89.68Z"/><path class="cls-6" d="M420.8,64.67,423.66,62a11.83,11.83,0,0,1,.67,1.48c.82,3,1.61,5.93,2.39,8.9.39,1.48.16,1.72-1.26,1.35-3-.79-6-1.59-9-2.41-1.35-.37-1.43-.71-.43-1.72.54-.56,1.15-1,1.85-1.69A12.78,12.78,0,0,0,410.66,64,13.55,13.55,0,0,0,395,73.91c-.52,1.89-1.58,2.67-3,2.15-1.18-.44-1.6-1.49-1.23-3a17.87,17.87,0,0,1,28.46-9.61C419.78,63.79,420.22,64.18,420.8,64.67Z"/><path class="cls-6" d="M396.19,89.68c-.67.74-1.24,1.4-1.85,2s-1.2.69-1.47-.31q-1.32-4.87-2.6-9.75c-.25-.94.25-1.18,1-1,3.25.85,6.5,1.73,9.74,2.61.89.24,1,.76.35,1.37s-1.39,1.22-2.06,1.81c3.07,3.82,9.34,5.27,14.26,3.39a13.47,13.47,0,0,0,8.48-9.23,3.64,3.64,0,0,1,1.25-2,2.24,2.24,0,0,1,2.11.09,2.7,2.7,0,0,1,.86,2.23,21.94,21.94,0,0,1-2.13,5.4,17.77,17.77,0,0,1-26.77,4.36Z"/></g></g></svg>