<svg xmlns="http://www.w3.org/2000/svg" viewBox="0 0 960.44 167"><defs><style>.cls-1{fill:#ff362a;}.cls-2{font-size:111.03px;}.cls-2,.cls-5,.cls-6{font-family:ZenDots-Regular, Zen Dots;}.cls-3{letter-spacing:0.02em;}.cls-4{letter-spacing:0em;}.cls-5{font-size:37.43px;}.cls-6{font-size:9px;fill:#fff;}</style></defs><g id="Layer_2" data-name="Layer 2"><g id="Layer_1-2" data-name="Layer 1"><path class="cls-1" d="M164.78,110.84v38.43c-1.32.86-2.62,1.74-3.95,2.58C152.6,157,143.94,161.44,136,167h-3c-3.28-1.15-6.74-1-10.12-1.42C106.31,163.69,89.71,162,73.13,160q-28.32-3.36-56.6-7.12C11,152.16,5.23,152.51,0,150V79.81c1.51-.79,3-1.65,4.54-2.34,8.62-3.82,17.23-7.69,25.92-11.34,2.28-1,3.06-2.13,3-4.61-.13-13.75,0-27.51-.12-41.26,0-2.74.86-4.31,3.42-5.29,3.66-1.4,7.24-3,10.79-4.67C55.09,6.79,63,4.15,70.2,0h2.22a6,6,0,0,0,1.37.51C93,3,112.29,5.67,131.58,7.9c4,.46,4.85,2,4.86,5.53,0,19.58.24,39.15.28,58.73,0,2.6.36,3.85,3.47,4.11,6.73.55,13.38,1.92,20.11,2.57,3,.29,3.9,1.44,3.92,4.36C164.3,92.41,163.94,101.64,164.78,110.84Zm-91.69-57c-2.86-1.91-5.39-3.39-7.68-5.19-1.8-1.42-3.28-1.63-5.26-.32-2.32,1.53-4.86,2.74-7.61,4.26,0-2.08-.09-3.76,0-5.43.49-7.24,1-14.49,1.63-21.72.19-2-.17-2.94-2.32-3.14-3.67-.34-7.33-.83-11-1.42-2.21-.36-3,.14-3,2.59q.14,28.82,0,57.64c0,2.4.78,3.09,3.15,3.26,5.27.38,10.51,1.16,15.76,1.74,14.79,1.66,29.58,3.27,44.36,5,1.81.21,2.35-.13,2.35-2q-.09-28.83,0-57.64c0-1.89-.59-2.44-2.48-2.66-7.69-.88-15.4-1.79-23-3.12-3.09-.54-3.81.22-3.88,3.14C73.9,36.88,74.05,45,73.09,53.79ZM80.23,123c.61-9.14,1.16-18,1.83-26.77.17-2.14-.3-3.14-2.69-3.16a47.16,47.16,0,0,1-8.8-.81c-3-.61-3.4.5-3.38,3.18.1,18.82.14,37.65,0,56.47,0,3,1.13,3.69,3.74,3.91,6.37.51,12.72,1.23,19.07,1.9,12.71,1.34,25.43,2.63,38.12,4.1,2.91.34,3.45-.64,3.44-3.34q-.18-27.5,0-55c0-2.69-.62-3.9-3.45-4.2q-10.62-1.11-21.2-2.71c-5.06-.76-4.68-1.12-4.85,4.14-.24,7.8-.52,15.59-.8,24-3.72-2.45-6.63-5.57-10.07-6.34C87.39,117.49,84.56,121.88,80.23,123Zm-61.31-8.14c.59-8.94,1.12-17.76,1.81-26.58.18-2.22-.54-3.07-2.73-3.26-3.17-.27-6.34-.72-9.48-1.26-1.78-.3-2.68-.2-2.67,2q.12,29.34,0,58.67c0,1.88.55,2.51,2.46,2.67,5,.42,10,1.13,15,1.7,11.72,1.35,23.43,2.67,35.15,4,1.84.21,2.91.06,2.9-2.35-.09-19.06-.06-38.13,0-57.19,0-1.62-.33-2.39-2.18-2.52-4.53-.33-9-1-13.56-1.42-4.85-.47-4.79-.42-4.93,4.38-.21,7.53-.52,15.06-.84,24-6.57-8.16-13.12-8.53-20.09-2.76C19.69,115.09,19.52,115,18.92,114.87Zm112.32-99c-6.42,4-12.76,8.18-19.27,12-2.12,1.26-2.69,2.68-2.68,5,.09,17.71,0,35.42.07,53.13,0,1-.36,2.16.59,3.47,6.82-4.12,13.6-8.24,20.43-12.29,1.77-1,1.91-2.59,1.9-4.4-.14-17.71-.21-35.42-.34-53.13C131.94,18.53,132.26,17.26,131.24,15.87Zm6,144.75c7.56-4.49,14.36-8.62,21.27-12.57,1.77-1,1.82-2.33,1.8-4q-.28-27.48-.55-55c0-.76.41-1.73-.77-2.36-5.86,3.69-11.65,7.63-17.74,11-3.28,1.83-4.16,4-4.09,7.63.22,11.43.08,22.87.08,34.31ZM77.49,21.09c8.75,1.14,16.41,2.17,24.08,3.12,1.8.22,4.06.9,5.4.14,6.56-3.74,12.88-7.89,20.14-12.43-8.62-1.12-16.14-2.12-23.68-3-1.41-.17-2.83-.94-4.31-.1C92.23,12.73,85.32,16.64,77.49,21.09Zm35.73,71.74c6.63.89,12.09,1.67,17.56,2.31,1.66.2,3.38.66,5-.37,6.09-3.86,12.2-7.68,19.2-12.08-6.12-.8-11.26-1.54-16.42-2.11-1.53-.16-3.07-1.06-4.66-.1C127.33,84.42,120.73,88.35,113.22,92.83ZM78,6.19l-.27-.88c-2.16-.14-4.63-1-6.44-.29-8.83,3.53-17.47,7.5-26.19,11.31,4.36,1,8.89,3.32,12.66,1.57C64.81,14.64,71.28,10.16,78,6.19ZM33,69.91,10.78,79.62c7.24,1.06,13.13,2.91,19-1.55C32.83,75.78,34.23,73.88,33,69.91Z"/><text class="cls-2" transform="translate(170.7 129.66)">Wa<tspan class="cls-3" x="207.73" y="0">r</tspan><tspan class="cls-4" x="281.34" y="0">ehouse</tspan></text><text class="cls-5" transform="translate(297.65 68.41)">simple</text><text class="cls-6" transform="translate(926.44 128)">APP</text></g></g></svg>