<svg xmlns="http://www.w3.org/2000/svg" viewBox="0 0 956.55 167"><defs><style>.cls-1{fill:#ff362a;}.cls-2{fill:#fff;}</style></defs><g id="Layer_2" data-name="Layer 2"><g id="Layer_1-2" data-name="Layer 1"><path class="cls-1" d="M164.78,110.84v38.43c-1.32.86-2.62,1.74-3.95,2.58C152.6,157,143.94,161.44,136,167h-3c-3.28-1.15-6.74-1-10.12-1.42C106.31,163.69,89.71,162,73.13,160q-28.32-3.36-56.6-7.12C11,152.16,5.23,152.51,0,150V79.81c1.51-.79,3-1.65,4.54-2.34,8.62-3.82,17.23-7.69,25.92-11.34,2.28-1,3.06-2.13,3-4.61-.13-13.75,0-27.51-.12-41.26,0-2.74.86-4.31,3.42-5.29,3.66-1.4,7.24-3,10.79-4.67C55.09,6.79,63,4.15,70.2,0h2.22a6,6,0,0,0,1.37.51C93,3,112.29,5.67,131.58,7.9c4,.46,4.85,2,4.86,5.53,0,19.58.24,39.15.28,58.73,0,2.6.36,3.85,3.47,4.11,6.73.55,13.38,1.92,20.11,2.57,3,.29,3.9,1.44,3.92,4.36C164.3,92.41,163.94,101.64,164.78,110.84Zm-91.69-57c-2.86-1.91-5.39-3.39-7.68-5.19-1.8-1.42-3.28-1.63-5.26-.32-2.32,1.53-4.86,2.74-7.61,4.26,0-2.08-.09-3.76,0-5.43.49-7.24,1-14.49,1.63-21.72.19-2-.17-2.94-2.32-3.14-3.67-.34-7.33-.83-11-1.42-2.21-.36-3,.14-3,2.59q.14,28.82,0,57.64c0,2.4.78,3.09,3.15,3.26,5.27.38,10.51,1.16,15.76,1.74,14.79,1.66,29.58,3.27,44.36,5,1.81.21,2.35-.13,2.35-2q-.09-28.83,0-57.64c0-1.89-.59-2.44-2.48-2.66-7.69-.88-15.4-1.79-23-3.12-3.09-.54-3.81.22-3.88,3.14C73.9,36.88,74.05,45,73.09,53.79ZM80.23,123c.61-9.14,1.16-18,1.83-26.77.17-2.14-.3-3.14-2.69-3.16a47.16,47.16,0,0,1-8.8-.81c-3-.61-3.4.5-3.38,3.18.1,18.82.14,37.65,0,56.47,0,3,1.13,3.69,3.74,3.91,6.37.51,12.72,1.23,19.07,1.9,12.71,1.34,25.43,2.63,38.12,4.1,2.91.34,3.45-.64,3.44-3.34q-.18-27.5,0-55c0-2.69-.62-3.9-3.45-4.2q-10.62-1.11-21.2-2.71c-5.06-.76-4.68-1.12-4.85,4.14-.24,7.8-.52,15.59-.8,24-3.72-2.45-6.63-5.57-10.07-6.34C87.39,117.49,84.56,121.88,80.23,123Zm-61.31-8.14c.59-8.94,1.12-17.76,1.81-26.58.18-2.22-.54-3.07-2.73-3.26-3.17-.27-6.34-.72-9.48-1.26-1.78-.3-2.68-.2-2.67,2q.12,29.34,0,58.67c0,1.88.55,2.51,2.46,2.67,5,.42,10,1.13,15,1.7,11.72,1.35,23.43,2.67,35.15,4,1.84.21,2.91.06,2.9-2.35-.09-19.06-.06-38.13,0-57.19,0-1.62-.33-2.39-2.18-2.52-4.53-.33-9-1-13.56-1.42-4.85-.47-4.79-.42-4.93,4.38-.21,7.53-.52,15.06-.84,24-6.57-8.16-13.12-8.53-20.09-2.76C19.69,115.09,19.52,115,18.92,114.87Zm112.32-99c-6.42,4-12.76,8.18-19.27,12-2.12,1.26-2.69,2.68-2.68,5,.09,17.71,0,35.42.07,53.13,0,1-.36,2.16.59,3.47,6.82-4.12,13.6-8.24,20.43-12.29,1.77-1,1.91-2.59,1.9-4.4-.14-17.71-.21-35.42-.34-53.13C131.94,18.53,132.26,17.26,131.24,15.87Zm6,144.75c7.56-4.49,14.36-8.62,21.27-12.57,1.77-1,1.82-2.33,1.8-4q-.28-27.48-.55-55c0-.76.41-1.73-.77-2.36-5.86,3.69-11.65,7.63-17.74,11-3.28,1.83-4.16,4-4.09,7.63.22,11.43.08,22.87.08,34.31ZM77.49,21.09c8.75,1.14,16.41,2.17,24.08,3.12,1.8.22,4.06.9,5.4.14,6.56-3.74,12.88-7.89,20.14-12.43-8.62-1.12-16.14-2.12-23.68-3-1.41-.17-2.83-.94-4.31-.1C92.23,12.73,85.32,16.64,77.49,21.09Zm35.73,71.74c6.63.89,12.09,1.67,17.56,2.31,1.66.2,3.38.66,5-.37,6.09-3.86,12.2-7.68,19.2-12.08-6.12-.8-11.26-1.54-16.42-2.11-1.53-.16-3.07-1.06-4.66-.1C127.33,84.42,120.73,88.35,113.22,92.83ZM78,6.19l-.27-.88c-2.16-.14-4.63-1-6.44-.29-8.83,3.53-17.47,7.5-26.19,11.31,4.36,1,8.89,3.32,12.66,1.57C64.81,14.64,71.28,10.16,78,6.19ZM33,69.91,10.78,79.62c7.24,1.06,13.13,2.91,19-1.55C32.83,75.78,34.23,73.88,33,69.91Z"/><path d="M185.14,129.66l-8.88-79.38H194l6.55,58,22.1-17v-41h17.76V91.36l21.87,16.87L269,50.28h17.77l-8.88,79.38H263l-31.42-25.42L200,129.66Z"/><path d="M313.6,129.66q-9,0-13.77-4.55t-4.77-13q0-8.33,4.77-12.88t13.77-4.55h42.63V92q0-6.76-6.66-6.77H302.49V72.48h51.3q10.09,0,14.32,4.61T372.33,90v39.64Zm2.88-12.77h39.75v-9.43H316.48a4.21,4.21,0,0,0-3.27,1.27,4.82,4.82,0,0,0-1.17,3.39,5,5,0,0,0,1.17,3.44A4.12,4.12,0,0,0,316.48,116.89Z"/><path d="M384.54,129.66V72.48h43.75q9.66,0,14.21,4.83T447.05,90V101.9H430.73V92q0-6.66-6.66-6.66H400.86v44.3Z"/><path d="M487.46,130.22q-14.88,0-23.2-7.39t-8.33-21.7q0-14.43,8.33-21.82t23.2-7.38h27.76q9.76,0,14.93,4.6t5.17,13.16q0,17.43-20.1,17.43h-42q2.34,10.34,14.21,10.33h45v12.77Zm0-45.53q-11.43,0-14.1,9.66h41.08a4.61,4.61,0,0,0,3.5-1.33,5.08,5.08,0,0,0,1.28-3.66q0-4.67-4.78-4.67Z"/><path d="M545.31,129.66V50.28h16.1v22.2h33.75q9.76,0,14.27,4.83T613.92,90v39.64h-16.1V91.91q0-6.66-6.66-6.66H561.41v44.41Z"/><path d="M654.89,130.22q-14.88,0-23.2-7.39t-8.33-21.7q0-14.43,8.33-21.82t23.2-7.38h20.54q14.88,0,23.21,7.38T707,101.13q0,14.33-8.32,21.7t-23.21,7.39Zm0-12.77h20.54q7.22,0,11.05-4t3.83-12.32q0-8.44-3.83-12.44t-11.05-4H654.89q-7.21,0-11,4T640,101.13q0,8.33,3.84,12.32T654.89,117.45Z"/><path d="M735.17,129.66q-9.78,0-14.27-4.88t-4.5-12.66V72.48h16.1v37.75q0,6.66,6.66,6.66h23.1q6.66,0,6.66-6.66V72.48H785v39.64q0,7.77-4.5,12.66t-14.27,4.88Z"/><path d="M794.79,130.22V117.45h54.4q4.66,0,4.66-5.22c0-3.4-1.55-5.11-4.66-5.11H814q-9.88,0-15-4.49T793.9,89.69q0-8.55,5.16-13.16T814,71.93h50.63V84.69H814.77q-4.77,0-4.77,4.67A4.94,4.94,0,0,0,811.33,93a4.64,4.64,0,0,0,3.44,1.33h37.31q8.65,0,13.26,4.5T870,111.9q0,8.66-4.66,13.49t-13.21,4.83Z"/><path d="M908.7,130.22q-14.88,0-23.2-7.39t-8.33-21.7q0-14.43,8.33-21.82t23.2-7.38h27.76q9.76,0,14.93,4.6t5.16,13.16q0,17.43-20.09,17.43h-42q2.32,10.34,14.21,10.33h45v12.77Zm0-45.53q-11.43,0-14.1,9.66h41.08a4.61,4.61,0,0,0,3.5-1.33,5.08,5.08,0,0,0,1.27-3.66q0-4.67-4.77-4.67Z"/><path d="M299.07,68.6V64.3h18.34c1,0,1.57-.59,1.57-1.76s-.52-1.73-1.57-1.73H305.54a7.43,7.43,0,0,1-5.05-1.51,5.5,5.5,0,0,1-1.72-4.36,5.65,5.65,0,0,1,1.74-4.44,7.35,7.35,0,0,1,5-1.55h17.07v4.3h-16.8a1.41,1.41,0,0,0-1.61,1.57,1.67,1.67,0,0,0,.45,1.24,1.56,1.56,0,0,0,1.16.45h12.57A6.16,6.16,0,0,1,322.86,58a5.91,5.91,0,0,1,1.55,4.4A6.26,6.26,0,0,1,322.84,67a5.89,5.89,0,0,1-4.46,1.63Z"/><path d="M327.56,46V41.72h5.5V46Zm0,22.46V49.13H333V68.41Z"/><path d="M337.14,68.41V49.13h25a6.4,6.4,0,0,1,4.83,1.63,6,6,0,0,1,1.53,4.29V68.41H363V55.72a2,2,0,0,0-2.32-2.28h-5.2v15h-5.43v-15h-7.52v15Z"/><path d="M372.4,76.84V49.13h13.85c3.35,0,5.95.83,7.83,2.47s2.8,4,2.8,7.15-.93,5.55-2.8,7.19-4.48,2.47-7.83,2.47h-8.42v8.43Zm13.85-23.4h-8.42V64.11h8.42A5,5,0,0,0,390,62.78a5.59,5.59,0,0,0,1.29-4,5.49,5.49,0,0,0-1.29-4A5,5,0,0,0,386.25,53.44Z"/><path d="M400.25,68.41V41.65h5.43V68.41Z"/><path d="M419.68,68.6q-5,0-7.82-2.49c-1.88-1.66-2.81-4.1-2.81-7.32s.93-5.69,2.81-7.35S416.34,49,419.68,49H429a7.35,7.35,0,0,1,5,1.55,5.65,5.65,0,0,1,1.74,4.44q0,5.87-6.77,5.87H414.89c.52,2.32,2.12,3.49,4.79,3.49h15.16v4.3Zm0-15.35c-2.57,0-4.16,1.09-4.75,3.26h13.85a1.56,1.56,0,0,0,1.18-.45,1.74,1.74,0,0,0,.43-1.24,1.41,1.41,0,0,0-1.61-1.57Z"/><path class="cls-2" d="M926.53,128l2.9-6.44h2.22l2.9,6.44H933l-.61-1.36h-3.66l-.62,1.36Zm2.7-2.53h2.62l-1.25-2.78h-.12Z"/><path class="cls-2" d="M935.27,128v-6.44h5.39a2.21,2.21,0,0,1,1.55.51,2.4,2.4,0,0,1,0,3.06,2.21,2.21,0,0,1-1.55.5h-3.95V128Zm5.22-5.27h-3.78v1.72h3.78a.85.85,0,0,0,.6-.19.87.87,0,0,0,.22-.67.74.74,0,0,0-.82-.87Z"/><path class="cls-2" d="M943.66,128v-6.44h5.4a2.21,2.21,0,0,1,1.55.51,2.4,2.4,0,0,1,0,3.06,2.21,2.21,0,0,1-1.55.5h-3.95V128Zm5.22-5.27h-3.77v1.72h3.77a.86.86,0,0,0,.61-.19.91.91,0,0,0,.21-.67.88.88,0,0,0-.21-.67A.86.86,0,0,0,948.88,122.73Z"/></g></g></svg>